<svg width="1128" height="1128" xmlns="http://www.w3.org/2000/svg" xmlns:xlink="http://www.w3.org/1999/xlink" xml:space="preserve" overflow="hidden"><g><path d="M219.5 564C219.5 373.738 373.738 219.5 564 219.5 754.262 219.5 908.5 373.738 908.5 564 908.5 754.262 754.262 908.5 564 908.5 373.738 908.5 219.5 754.262 219.5 564Z" stroke="#5D8165" stroke-width="68.75" stroke-miterlimit="8" fill="none" fill-rule="evenodd"/><path d="M562 410 771 564 562 718Z" stroke="#5D8165" stroke-width="27.5" stroke-linejoin="round" stroke-miterlimit="10" fill="none" fill-rule="evenodd"/><path d="M454 422C454 415.373 459.373 410 466 410L514 410C520.627 410 526 415.373 526 422L526 706C526 712.627 520.627 718 514 718L466 718C459.373 718 454 712.627 454 706Z" stroke="#5D8165" stroke-width="27.5" stroke-miterlimit="8" fill="none" fill-rule="evenodd"/></g></svg>