solid ascii
 facet normal -1 0 0
  outer loop
   vertex 0 1 0
   vertex 0 0 0
   vertex 0 1 1
  endloop
 endfacet
 facet normal -1 -0 0
  outer loop
   vertex 0 0 1
   vertex 0 1 1
   vertex 0 0 0
  endloop
 endfacet
 facet normal 0 -1 0
  outer loop
   vertex 0 0 0
   vertex 1 0 0
   vertex 0 0 1
  endloop
 endfacet
 facet normal 0 -1 0
  outer loop
   vertex 1 0 1
   vertex 0 0 1
   vertex 1 0 0
  endloop
 endfacet
 facet normal 0 0 -1
  outer loop
   vertex 1 0 0
   vertex 0 0 0
   vertex 1 1 0
  endloop
 endfacet
 facet normal -0 0 -1
  outer loop
   vertex 0 1 0
   vertex 1 1 0
   vertex 0 0 0
  endloop
 endfacet
 facet normal 1 0 0
  outer loop
   vertex 2 0 0
   vertex 2 1 0
   vertex 2 0 1
  endloop
 endfacet
 facet normal 1 -0 0
  outer loop
   vertex 2 1 1
   vertex 2 0 1
   vertex 2 1 0
  endloop
 endfacet
 facet normal 0 -1 0
  outer loop
   vertex 1 0 0
   vertex 2 0 0
   vertex 1 0 1
  endloop
 endfacet
 facet normal 0 -1 0
  outer loop
   vertex 2 0 1
   vertex 1 0 1
   vertex 2 0 0
  endloop
 endfacet
 facet normal 0 0 -1
  outer loop
   vertex 2 0 0
   vertex 1 0 0
   vertex 2 1 0
  endloop
 endfacet
 facet normal -0 0 -1
  outer loop
   vertex 1 1 0
   vertex 2 1 0
   vertex 1 0 0
  endloop
 endfacet
 facet normal -1 0 0
  outer loop
   vertex 0 2 0
   vertex 0 1 0
   vertex 0 2 1
  endloop
 endfacet
 facet normal -1 -0 0
  outer loop
   vertex 0 1 1
   vertex 0 2 1
   vertex 0 1 0
  endloop
 endfacet
 facet normal 0 0 -1
  outer loop
   vertex 1 1 0
   vertex 0 1 0
   vertex 1 2 0
  endloop
 endfacet
 facet normal -0 0 -1
  outer loop
   vertex 0 2 0
   vertex 1 2 0
   vertex 0 1 0
  endloop
 endfacet
 facet normal 1 0 0
  outer loop
   vertex 2 1 0
   vertex 2 2 0
   vertex 2 1 1
  endloop
 endfacet
 facet normal 1 -0 0
  outer loop
   vertex 2 2 1
   vertex 2 1 1
   vertex 2 2 0
  endloop
 endfacet
 facet normal 0 0 -1
  outer loop
   vertex 2 1 0
   vertex 1 1 0
   vertex 2 2 0
  endloop
 endfacet
 facet normal -0 0 -1
  outer loop
   vertex 1 2 0
   vertex 2 2 0
   vertex 1 1 0
  endloop
 endfacet
 facet normal -1 0 0
  outer loop
   vertex 0 3 0
   vertex 0 2 0
   vertex 0 3 1
  endloop
 endfacet
 facet normal -1 -0 0
  outer loop
   vertex 0 2 1
   vertex 0 3 1
   vertex 0 2 0
  endloop
 endfacet
 facet normal 0 1 0
  outer loop
   vertex 1 3 0
   vertex 0 3 0
   vertex 1 3 1
  endloop
 endfacet
 facet normal 0 1 0
  outer loop
   vertex 0 3 1
   vertex 1 3 1
   vertex 0 3 0
  endloop
 endfacet
 facet normal 0 0 -1
  outer loop
   vertex 1 2 0
   vertex 0 2 0
   vertex 1 3 0
  endloop
 endfacet
 facet normal -0 0 -1
  outer loop
   vertex 0 3 0
   vertex 1 3 0
   vertex 0 2 0
  endloop
 endfacet
 facet normal 1 0 0
  outer loop
   vertex 2 2 0
   vertex 2 3 0
   vertex 2 2 1
  endloop
 endfacet
 facet normal 1 -0 0
  outer loop
   vertex 2 3 1
   vertex 2 2 1
   vertex 2 3 0
  endloop
 endfacet
 facet normal 0 1 0
  outer loop
   vertex 2 3 0
   vertex 1 3 0
   vertex 2 3 1
  endloop
 endfacet
 facet normal 0 1 0
  outer loop
   vertex 1 3 1
   vertex 2 3 1
   vertex 1 3 0
  endloop
 endfacet
 facet normal 0 0 -1
  outer loop
   vertex 2 2 0
   vertex 1 2 0
   vertex 2 3 0
  endloop
 endfacet
 facet normal -0 0 -1
  outer loop
   vertex 1 3 0
   vertex 2 3 0
   vertex 1 2 0
  endloop
 endfacet
 facet normal -1 0 0
  outer loop
   vertex 0 1 1
   vertex 0 0 1
   vertex 0 1 2
  endloop
 endfacet
 facet normal -1 -0 0
  outer loop
   vertex 0 0 2
   vertex 0 1 2
   vertex 0 0 1
  endloop
 endfacet
 facet normal 0 -1 0
  outer loop
   vertex 0 0 1
   vertex 1 0 1
   vertex 0 0 2
  endloop
 endfacet
 facet normal 0 -1 0
  outer loop
   vertex 1 0 2
   vertex 0 0 2
   vertex 1 0 1
  endloop
 endfacet
 facet normal 1 0 0
  outer loop
   vertex 2 0 1
   vertex 2 1 1
   vertex 2 0 2
  endloop
 endfacet
 facet normal 1 -0 0
  outer loop
   vertex 2 1 2
   vertex 2 0 2
   vertex 2 1 1
  endloop
 endfacet
 facet normal 0 -1 0
  outer loop
   vertex 1 0 1
   vertex 2 0 1
   vertex 1 0 2
  endloop
 endfacet
 facet normal 0 -1 0
  outer loop
   vertex 2 0 2
   vertex 1 0 2
   vertex 2 0 1
  endloop
 endfacet
 facet normal -1 0 0
  outer loop
   vertex 0 2 1
   vertex 0 1 1
   vertex 0 2 2
  endloop
 endfacet
 facet normal -1 -0 0
  outer loop
   vertex 0 1 2
   vertex 0 2 2
   vertex 0 1 1
  endloop
 endfacet
 facet normal 1 0 0
  outer loop
   vertex 2 1 1
   vertex 2 2 1
   vertex 2 1 2
  endloop
 endfacet
 facet normal 1 -0 0
  outer loop
   vertex 2 2 2
   vertex 2 1 2
   vertex 2 2 1
  endloop
 endfacet
 facet normal -1 0 0
  outer loop
   vertex 0 3 1
   vertex 0 2 1
   vertex 0 3 2
  endloop
 endfacet
 facet normal -1 -0 0
  outer loop
   vertex 0 2 2
   vertex 0 3 2
   vertex 0 2 1
  endloop
 endfacet
 facet normal 0 1 0
  outer loop
   vertex 1 3 1
   vertex 0 3 1
   vertex 1 3 2
  endloop
 endfacet
 facet normal 0 1 0
  outer loop
   vertex 0 3 2
   vertex 1 3 2
   vertex 0 3 1
  endloop
 endfacet
 facet normal 1 0 0
  outer loop
   vertex 2 2 1
   vertex 2 3 1
   vertex 2 2 2
  endloop
 endfacet
 facet normal 1 -0 0
  outer loop
   vertex 2 3 2
   vertex 2 2 2
   vertex 2 3 1
  endloop
 endfacet
 facet normal 0 1 0
  outer loop
   vertex 2 3 1
   vertex 1 3 1
   vertex 2 3 2
  endloop
 endfacet
 facet normal 0 1 0
  outer loop
   vertex 1 3 2
   vertex 2 3 2
   vertex 1 3 1
  endloop
 endfacet
 facet normal -1 0 0
  outer loop
   vertex 0 1 2
   vertex 0 0 2
   vertex 0 1 3
  endloop
 endfacet
 facet normal -1 -0 0
  outer loop
   vertex 0 0 3
   vertex 0 1 3
   vertex 0 0 2
  endloop
 endfacet
 facet normal 0 -1 0
  outer loop
   vertex 0 0 2
   vertex 1 0 2
   vertex 0 0 3
  endloop
 endfacet
 facet normal 0 -1 0
  outer loop
   vertex 1 0 3
   vertex 0 0 3
   vertex 1 0 2
  endloop
 endfacet
 facet normal 1 0 0
  outer loop
   vertex 2 0 2
   vertex 2 1 2
   vertex 2 0 3
  endloop
 endfacet
 facet normal 1 -0 0
  outer loop
   vertex 2 1 3
   vertex 2 0 3
   vertex 2 1 2
  endloop
 endfacet
 facet normal 0 -1 0
  outer loop
   vertex 1 0 2
   vertex 2 0 2
   vertex 1 0 3
  endloop
 endfacet
 facet normal 0 -1 0
  outer loop
   vertex 2 0 3
   vertex 1 0 3
   vertex 2 0 2
  endloop
 endfacet
 facet normal -1 0 0
  outer loop
   vertex 0 2 2
   vertex 0 1 2
   vertex 0 2 3
  endloop
 endfacet
 facet normal -1 -0 0
  outer loop
   vertex 0 1 3
   vertex 0 2 3
   vertex 0 1 2
  endloop
 endfacet
 facet normal 1 0 0
  outer loop
   vertex 2 1 2
   vertex 2 2 2
   vertex 2 1 3
  endloop
 endfacet
 facet normal 1 -0 0
  outer loop
   vertex 2 2 3
   vertex 2 1 3
   vertex 2 2 2
  endloop
 endfacet
 facet normal -1 0 0
  outer loop
   vertex 0 3 2
   vertex 0 2 2
   vertex 0 3 3
  endloop
 endfacet
 facet normal -1 -0 0
  outer loop
   vertex 0 2 3
   vertex 0 3 3
   vertex 0 2 2
  endloop
 endfacet
 facet normal 0 1 0
  outer loop
   vertex 1 3 2
   vertex 0 3 2
   vertex 1 3 3
  endloop
 endfacet
 facet normal 0 1 0
  outer loop
   vertex 0 3 3
   vertex 1 3 3
   vertex 0 3 2
  endloop
 endfacet
 facet normal 1 0 0
  outer loop
   vertex 2 2 2
   vertex 2 3 2
   vertex 2 2 3
  endloop
 endfacet
 facet normal 1 -0 0
  outer loop
   vertex 2 3 3
   vertex 2 2 3
   vertex 2 3 2
  endloop
 endfacet
 facet normal 0 1 0
  outer loop
   vertex 2 3 2
   vertex 1 3 2
   vertex 2 3 3
  endloop
 endfacet
 facet normal 0 1 0
  outer loop
   vertex 1 3 3
   vertex 2 3 3
   vertex 1 3 2
  endloop
 endfacet
 facet normal -1 0 0
  outer loop
   vertex 0 1 3
   vertex 0 0 3
   vertex 0 1 4
  endloop
 endfacet
 facet normal -1 -0 0
  outer loop
   vertex 0 0 4
   vertex 0 1 4
   vertex 0 0 3
  endloop
 endfacet
 facet normal 0 -1 0
  outer loop
   vertex 0 0 3
   vertex 1 0 3
   vertex 0 0 4
  endloop
 endfacet
 facet normal 0 -1 0
  outer loop
   vertex 1 0 4
   vertex 0 0 4
   vertex 1 0 3
  endloop
 endfacet
 facet normal 0 0 1
  outer loop
   vertex 0 0 4
   vertex 1 0 4
   vertex 0 1 4
  endloop
 endfacet
 facet normal -0 0 1
  outer loop
   vertex 1 1 4
   vertex 0 1 4
   vertex 1 0 4
  endloop
 endfacet
 facet normal 1 0 0
  outer loop
   vertex 2 0 3
   vertex 2 1 3
   vertex 2 0 4
  endloop
 endfacet
 facet normal 1 -0 0
  outer loop
   vertex 2 1 4
   vertex 2 0 4
   vertex 2 1 3
  endloop
 endfacet
 facet normal 0 -1 0
  outer loop
   vertex 1 0 3
   vertex 2 0 3
   vertex 1 0 4
  endloop
 endfacet
 facet normal 0 -1 0
  outer loop
   vertex 2 0 4
   vertex 1 0 4
   vertex 2 0 3
  endloop
 endfacet
 facet normal 0 0 1
  outer loop
   vertex 1 0 4
   vertex 2 0 4
   vertex 1 1 4
  endloop
 endfacet
 facet normal -0 0 1
  outer loop
   vertex 2 1 4
   vertex 1 1 4
   vertex 2 0 4
  endloop
 endfacet
 facet normal -1 0 0
  outer loop
   vertex 0 2 3
   vertex 0 1 3
   vertex 0 2 4
  endloop
 endfacet
 facet normal -1 -0 0
  outer loop
   vertex 0 1 4
   vertex 0 2 4
   vertex 0 1 3
  endloop
 endfacet
 facet normal 0 0 1
  outer loop
   vertex 0 1 4
   vertex 1 1 4
   vertex 0 2 4
  endloop
 endfacet
 facet normal -0 0 1
  outer loop
   vertex 1 2 4
   vertex 0 2 4
   vertex 1 1 4
  endloop
 endfacet
 facet normal 1 0 0
  outer loop
   vertex 2 1 3
   vertex 2 2 3
   vertex 2 1 4
  endloop
 endfacet
 facet normal 1 -0 0
  outer loop
   vertex 2 2 4
   vertex 2 1 4
   vertex 2 2 3
  endloop
 endfacet
 facet normal 0 0 1
  outer loop
   vertex 1 1 4
   vertex 2 1 4
   vertex 1 2 4
  endloop
 endfacet
 facet normal -0 0 1
  outer loop
   vertex 2 2 4
   vertex 1 2 4
   vertex 2 1 4
  endloop
 endfacet
 facet normal -1 0 0
  outer loop
   vertex 0 3 3
   vertex 0 2 3
   vertex 0 3 4
  endloop
 endfacet
 facet normal -1 -0 0
  outer loop
   vertex 0 2 4
   vertex 0 3 4
   vertex 0 2 3
  endloop
 endfacet
 facet normal 0 1 0
  outer loop
   vertex 1 3 3
   vertex 0 3 3
   vertex 1 3 4
  endloop
 endfacet
 facet normal 0 1 0
  outer loop
   vertex 0 3 4
   vertex 1 3 4
   vertex 0 3 3
  endloop
 endfacet
 facet normal 0 0 1
  outer loop
   vertex 0 2 4
   vertex 1 2 4
   vertex 0 3 4
  endloop
 endfacet
 facet normal -0 0 1
  outer loop
   vertex 1 3 4
   vertex 0 3 4
   vertex 1 2 4
  endloop
 endfacet
 facet normal 1 0 0
  outer loop
   vertex 2 2 3
   vertex 2 3 3
   vertex 2 2 4
  endloop
 endfacet
 facet normal 1 -0 0
  outer loop
   vertex 2 3 4
   vertex 2 2 4
   vertex 2 3 3
  endloop
 endfacet
 facet normal 0 1 0
  outer loop
   vertex 2 3 3
   vertex 1 3 3
   vertex 2 3 4
  endloop
 endfacet
 facet normal 0 1 0
  outer loop
   vertex 1 3 4
   vertex 2 3 4
   vertex 1 3 3
  endloop
 endfacet
 facet normal 0 0 1
  outer loop
   vertex 1 2 4
   vertex 2 2 4
   vertex 1 3 4
  endloop
 endfacet
 facet normal -0 0 1
  outer loop
   vertex 2 3 4
   vertex 1 3 4
   vertex 2 2 4
  endloop
 endfacet
endsolid
